<svg width="15" height="20" viewBox="0 0 15 20" fill="none" xmlns="http://www.w3.org/2000/svg">
<path d="M7.48505 0C8.57405 0 9.45606 0.898 9.45606 2.006L9.44705 2.169C10.3151 2.521 11.1541 3.105 11.8981 3.879C12.7601 4.772 13.2641 5.956 13.4191 7.475V12.953L14.6101 15.051C15.0101 15.717 15.1381 16.275 14.8261 16.758C14.5401 17.199 14.0291 17.353 13.3361 17.341H10.6661C10.3541 18.86 9.03205 20 7.45005 20C5.86605 20 4.54506 18.86 4.23406 17.342H1.27806L1.22205 17.339C0.595055 17.285 0.128055 16.982 0.023055 16.399C-0.047945 16.002 0.0460549 15.576 0.291055 15.068L1.51605 12.888L1.51906 7.415C1.62606 6.205 2.07906 5.078 2.86706 4.044C3.53406 3.169 4.48705 2.525 5.52105 2.154C5.51697 2.10477 5.51497 2.0554 5.51506 2.006C5.51506 0.898 6.39705 0 7.48505 0ZM9.30306 17.342H5.59705C5.87205 18.112 6.59705 18.662 7.45005 18.662C8.30205 18.662 9.02806 18.112 9.30306 17.342ZM7.58205 3.124C6.22805 3.124 4.73906 3.769 3.90506 4.864C3.26706 5.7 2.91105 6.586 2.83005 7.474V13.064C2.83005 13.181 2.80006 13.296 2.74306 13.397L1.45205 15.693C1.40202 15.7925 1.36183 15.8967 1.33206 16.004H13.3461C13.4671 16.006 13.5591 16.001 13.6221 15.999C13.5802 15.908 13.5331 15.8196 13.4811 15.734L12.1941 13.467C12.1362 13.3648 12.1059 13.2494 12.1061 13.132L12.1091 7.546C11.9881 6.384 11.6031 5.482 10.9601 4.814C9.92006 3.734 8.69805 3.124 7.58205 3.124ZM7.48505 1.337C7.33916 1.33801 7.19772 1.38733 7.08283 1.47725C6.96794 1.56717 6.88608 1.69262 6.85006 1.834C7.09606 1.803 7.34005 1.787 7.58205 1.787C7.75905 1.787 7.93805 1.797 8.11705 1.819C8.07838 1.6809 7.99578 1.55916 7.88175 1.4722C7.76772 1.38523 7.62846 1.33777 7.48505 1.337Z" fill="black"/>
</svg>
